<svg width="281" height="175" viewBox="0 0 281 175" fill="none" xmlns="http://www.w3.org/2000/svg">
<path d="M24.9091 50.1995L47.4091 120.927H48.2727L70.8182 50.1995H92.6364L60.5455 143.29H35.1818L3.04545 50.1995H24.9091Z" fill="url(#paint0_linear_3_2)"/>
<path d="M210.091 142.29V49.1995H272.818V65.4267H229.773V87.6085H269.591V103.836H229.773V126.063H273V142.29H210.091Z" fill="url(#paint1_linear_3_2)"/>
<circle cx="169.5" cy="128.79" r="34.5" fill="url(#paint2_radial_3_2)"/>
<circle cx="170" cy="128.29" r="4.85" stroke="black" stroke-width="0.3"/>
<circle cx="170" cy="128.29" r="9.85" stroke="black" stroke-width="0.3"/>
<line x1="170.15" y1="94.2904" x2="170.15" y2="100.29" stroke="black" stroke-width="0.3"/>
<line x1="170.15" y1="156.29" x2="170.15" y2="162.29" stroke="black" stroke-width="0.3"/>
<line x1="142" y1="128.44" x2="136" y2="128.44" stroke="black" stroke-width="0.3"/>
<line x1="203" y1="128.44" x2="197" y2="123.44" stroke="black" stroke-width="0.3"/>
<circle cx="169.5" cy="48.7904" r="34.5" transform="rotate(-45 169.5 48.7904)" fill="url(#paint3_radial_3_2)"/>
<circle cx="169.5" cy="48.0833" r="4.85" transform="rotate(-45 169.5 48.0833)" stroke="black" stroke-width="0.3"/>
<circle cx="169.5" cy="48.0833" r="9.85" transform="rotate(-45 169.5 48.0833)" stroke="black" stroke-width="0.3"/>
<line x1="145.564" y1="23.9356" x2="149.807" y2="28.1782" stroke="black" stroke-width="0.3"/>
<line x1="189.405" y1="67.7762" x2="193.648" y2="72.0188" stroke="black" stroke-width="0.3"/>
<line x1="149.807" y1="67.9883" x2="145.564" y2="72.231" stroke="black" stroke-width="0.3"/>
<line x1="192.941" y1="24.8548" x2="185.162" y2="25.5619" stroke="black" stroke-width="0.3"/>
<line x1="135.5" y1="44.2904" x2="135.5" y2="135.29" stroke="#FAFBFC"/>
<mask id="path-18-inside-1_3_2" fill="white">
<path d="M96 39.2904H132V153.29H96V39.2904Z"/>
</mask>
<path d="M131 39.2904V153.29H133V39.2904H131ZM97 153.29V39.2904H95V153.29H97Z" fill="white" mask="url(#path-18-inside-1_3_2)"/>
<rect x="102" y="123.29" width="25" height="25" fill="url(#paint4_linear_3_2)"/>
<rect x="102" y="85" width="25" height="25" fill="url(#paint5_linear_3_2)"/>
<rect x="102" y="47" width="25" height="25" fill="url(#paint6_linear_3_2)"/>
<defs>
<linearGradient id="paint0_linear_3_2" x1="48" y1="19.2904" x2="48" y2="174.29" gradientUnits="userSpaceOnUse">
<stop stop-color="white"/>
<stop offset="1" stop-color="#DDE1E2"/>
</linearGradient>
<linearGradient id="paint1_linear_3_2" x1="241.5" y1="18.2904" x2="241.5" y2="173.29" gradientUnits="userSpaceOnUse">
<stop stop-color="#FEFEFE"/>
<stop offset="1" stop-color="#DDE1E2"/>
</linearGradient>
<radialGradient id="paint2_radial_3_2" cx="0" cy="0" r="1" gradientUnits="userSpaceOnUse" gradientTransform="translate(169.5 128.79) rotate(90) scale(34.5)">
<stop stop-color="#FDFEFF"/>
<stop offset="1" stop-color="#DADDDE"/>
</radialGradient>
<radialGradient id="paint3_radial_3_2" cx="0" cy="0" r="1" gradientUnits="userSpaceOnUse" gradientTransform="translate(169.5 48.7904) rotate(90) scale(34.5)">
<stop stop-color="#FDFEFF"/>
<stop offset="1" stop-color="#DADDDE"/>
</radialGradient>
<linearGradient id="paint4_linear_3_2" x1="114.5" y1="123.29" x2="114.5" y2="148.29" gradientUnits="userSpaceOnUse">
<stop stop-color="#F2F5F5"/>
<stop offset="0.5" stop-color="#FDFEFF"/>
<stop offset="1" stop-color="#F2F5F5"/>
</linearGradient>
<linearGradient id="paint5_linear_3_2" x1="114.5" y1="85" x2="114.5" y2="110" gradientUnits="userSpaceOnUse">
<stop stop-color="#F2F5F5"/>
<stop offset="0.5" stop-color="#FDFEFF"/>
<stop offset="1" stop-color="#F2F5F5"/>
</linearGradient>
<linearGradient id="paint6_linear_3_2" x1="114.5" y1="47" x2="114.5" y2="72" gradientUnits="userSpaceOnUse">
<stop stop-color="#F2F5F5"/>
<stop offset="0.5" stop-color="#FDFEFF"/>
<stop offset="1" stop-color="#F2F5F5"/>
</linearGradient>
</defs>
</svg>
