<svg width="281" height="175" viewBox="0 0 281 175" fill="none" xmlns="http://www.w3.org/2000/svg">
<path d="M24.9091 50.9091L47.4091 121.636H48.2727L70.8182 50.9091H92.6364L60.5455 144H35.1818L3.04545 50.9091H24.9091Z" fill="url(#paint0_linear_3_2)"/>
<path d="M210.091 143V49.9091H272.818V66.1364H229.773V88.3182H269.591V104.545H229.773V126.773H273V143H210.091Z" fill="url(#paint1_linear_3_2)"/>
<circle cx="169.5" cy="129.5" r="34.5" fill="url(#paint2_radial_3_2)"/>
<circle cx="170" cy="129" r="4.5" stroke="black"/>
<circle cx="170" cy="129" r="9.5" stroke="black"/>
<line x1="170.5" y1="95" x2="170.5" y2="101" stroke="black"/>
<line x1="170.5" y1="157" x2="170.5" y2="163" stroke="black"/>
<line x1="142" y1="129.5" x2="136" y2="129.5" stroke="black"/>
<line x1="203" y1="129.5" x2="197" y2="124.5" stroke="black"/>
<circle cx="169.5" cy="49.5" r="34.5" transform="rotate(-45 169.5 49.5)" fill="url(#paint3_radial_3_2)"/>
<circle cx="169.5" cy="48.7929" r="4.5" transform="rotate(-45 169.5 48.7929)" stroke="black"/>
<circle cx="169.5" cy="48.7929" r="9.5" transform="rotate(-45 169.5 48.7929)" stroke="black"/>
<line x1="145.812" y1="24.3977" x2="150.055" y2="28.6404" stroke="black"/>
<line x1="189.653" y1="68.2383" x2="193.895" y2="72.481" stroke="black"/>
<line x1="150.055" y1="68.9454" x2="145.812" y2="73.1881" stroke="black"/>
<line x1="193.188" y1="25.8119" x2="185.41" y2="26.519" stroke="black"/>
<line x1="135.5" y1="45" x2="135.5" y2="136" stroke="#055F7B"/>
<mask id="path-18-inside-1_3_2" fill="white">
<path d="M96 40H132V154H96V40Z"/>
</mask>
<path d="M131 40V154H133V40H131ZM97 154V40H95V154H97Z" fill="#055F7B" mask="url(#path-18-inside-1_3_2)"/>
<rect x="102" y="48" width="25" height="25" fill="url(#paint4_linear_3_2)"/>
<rect x="102" y="86" width="25" height="25" fill="url(#paint5_linear_3_2)"/>
<rect x="102" y="124" width="25" height="25" fill="url(#paint6_linear_3_2)"/>
<defs>
<linearGradient id="paint0_linear_3_2" x1="48" y1="20" x2="48" y2="175" gradientUnits="userSpaceOnUse">
<stop stop-color="#96E1F9"/>
<stop offset="1" stop-color="#055F7B"/>
</linearGradient>
<linearGradient id="paint1_linear_3_2" x1="241.5" y1="19" x2="241.5" y2="174" gradientUnits="userSpaceOnUse">
<stop stop-color="#96E1F9"/>
<stop offset="1" stop-color="#055F7B"/>
</linearGradient>
<radialGradient id="paint2_radial_3_2" cx="0" cy="0" r="1" gradientUnits="userSpaceOnUse" gradientTransform="translate(169.5 129.5) rotate(90) scale(34.5)">
<stop stop-color="#96E1F9"/>
<stop offset="1" stop-color="#055F7B"/>
</radialGradient>
<radialGradient id="paint3_radial_3_2" cx="0" cy="0" r="1" gradientUnits="userSpaceOnUse" gradientTransform="translate(169.5 49.5) rotate(90) scale(34.5)">
<stop stop-color="#96E1F9"/>
<stop offset="1" stop-color="#055F7B"/>
</radialGradient>
<linearGradient id="paint4_linear_3_2" x1="114.5" y1="48" x2="114.5" y2="73" gradientUnits="userSpaceOnUse">
<stop offset="0.197917" stop-color="#96E1F9"/>
<stop offset="0.609375" stop-color="#055F7B"/>
</linearGradient>
<linearGradient id="paint5_linear_3_2" x1="114.5" y1="86" x2="114.5" y2="111" gradientUnits="userSpaceOnUse">
<stop offset="0.197917" stop-color="#96E1F9"/>
<stop offset="0.609375" stop-color="#055F7B"/>
</linearGradient>
<linearGradient id="paint6_linear_3_2" x1="114.5" y1="124" x2="114.5" y2="149" gradientUnits="userSpaceOnUse">
<stop offset="0.197917" stop-color="#96E1F9"/>
<stop offset="0.609375" stop-color="#055F7B"/>
</linearGradient>
</defs>
</svg>
